<?xml version="1.0" standalone="no"?>
<!DOCTYPE svg PUBLIC "-//W3C//DTD SVG 20010904//EN"
 "http://www.w3.org/TR/2001/REC-SVG-20010904/DTD/svg10.dtd">
<svg version="1.0" xmlns="http://www.w3.org/2000/svg"
 width="810.000000pt" height="810.000000pt" viewBox="0 0 810.000000 810.000000"
 preserveAspectRatio="xMidYMid meet">
<metadata>
Created by potrace 1.14, written by Peter Selinger 2001-2017
</metadata>
<g transform="translate(0.000000,810.000000) scale(0.100000,-0.100000)"
fill="#000000" stroke="none">
<path d="M1675 7992 c-2 -2 -2 -9 1 -15 3 -9 -75 -12 -301 -11 -169 0 -308 -3
-310 -7 -3 -4 5 -18 16 -33 11 -14 18 -26 14 -26 -3 0 5 -12 19 -27 14 -15 23
-30 20 -35 -3 -4 -1 -8 3 -8 11 0 44 -55 38 -64 -3 -3 -2 -4 2 -1 7 6 53 -58
53 -74 0 -6 5 -11 10 -11 6 0 10 -7 10 -15 0 -8 3 -15 8 -15 4 0 16 -17 27
-37 11 -21 28 -47 38 -58 10 -11 25 -35 34 -52 8 -18 19 -33 24 -33 5 0 9 -6
9 -13 0 -7 9 -23 19 -34 11 -12 18 -23 15 -25 -2 -3 5 -13 16 -23 11 -10 20
-22 20 -27 0 -5 12 -25 26 -43 14 -19 23 -39 19 -45 -4 -6 -2 -9 4 -8 14 4
133 -180 125 -194 -4 -6 -3 -8 3 -5 6 4 25 -17 43 -46 19 -29 36 -54 39 -57 4
-3 15 -21 25 -40 11 -19 23 -37 26 -40 13 -9 63 -95 63 -107 0 -7 4 -10 8 -8
7 5 23 -24 21 -37 -1 -5 2 -8 7 -8 11 0 44 -50 44 -67 0 -7 4 -10 9 -7 4 3 8
0 8 -6 0 -6 7 -18 15 -27 9 -9 13 -24 10 -37 -2 -11 -2 -15 1 -8 3 6 10 12 15
12 6 0 8 -4 5 -9 -3 -4 4 -17 15 -27 11 -10 17 -24 14 -31 -2 -8 -1 -12 4 -9
9 6 26 -22 23 -36 -1 -5 2 -8 6 -8 5 0 24 -24 42 -52 19 -29 38 -54 42 -56 4
-2 8 -8 8 -13 0 -5 27 -50 60 -100 33 -50 60 -94 60 -99 0 -5 3 -10 8 -12 11
-5 52 -66 52 -78 0 -5 5 -10 10 -10 6 0 10 -7 10 -15 0 -8 5 -15 10 -15 6 0
10 -5 10 -11 0 -6 12 -26 26 -45 15 -19 24 -34 21 -34 -3 0 5 -12 19 -27 13
-14 22 -28 20 -31 -3 -2 0 -10 7 -17 23 -23 52 -65 49 -72 -2 -3 1 -9 6 -12 5
-3 28 -35 51 -71 22 -36 45 -70 51 -77 5 -7 10 -17 10 -23 0 -5 5 -10 10 -10
6 0 10 -6 10 -12 0 -10 -227 -13 -1103 -12 -606 0 -1105 -1 -1110 -4 -4 -2 3
-16 15 -31 13 -15 34 -42 47 -59 13 -17 41 -51 62 -74 22 -24 56 -66 76 -95
21 -29 44 -52 52 -53 8 0 12 -3 8 -6 -3 -3 5 -18 18 -32 13 -14 22 -29 19 -34
-3 -4 3 -8 12 -8 10 0 15 -2 12 -5 -3 -3 17 -29 44 -58 26 -28 48 -56 48 -60
0 -4 13 -21 30 -37 16 -16 30 -32 30 -36 0 -4 11 -17 26 -30 14 -13 22 -24 19
-24 -3 0 6 -12 20 -27 52 -56 63 -70 131 -153 38 -47 73 -88 79 -92 6 -5 7 -8
0 -8 -5 0 -2 -5 8 -11 9 -5 17 -17 17 -24 0 -8 3 -14 8 -12 4 1 8 -1 9 -6 2
-4 13 -18 25 -31 47 -47 78 -86 78 -97 0 -5 5 -7 10 -4 5 3 10 -1 10 -9 0 -9
5 -16 10 -16 6 0 10 -5 10 -11 0 -6 11 -20 25 -31 14 -11 23 -23 20 -28 -3 -5
4 -11 15 -15 11 -3 20 -11 20 -16 0 -5 11 -22 24 -36 14 -15 23 -30 20 -35 -3
-4 2 -8 10 -8 9 0 16 -3 16 -7 0 -5 20 -30 45 -58 24 -27 45 -53 45 -57 0 -3
17 -25 38 -47 20 -22 51 -57 67 -77 17 -20 36 -43 43 -50 7 -8 11 -14 7 -14
-3 0 5 -11 19 -24 15 -13 26 -26 26 -29 0 -3 10 -17 23 -29 12 -13 38 -43 57
-67 19 -23 41 -49 48 -57 8 -8 11 -22 8 -31 -5 -13 -4 -14 8 -4 12 10 16 8 21
-8 3 -12 11 -21 17 -21 6 0 9 -2 6 -5 -3 -3 9 -21 26 -39 57 -61 76 -88 69
-99 -3 -7 -3 -9 2 -5 7 7 32 -17 85 -83 57 -70 98 -120 132 -160 16 -17 25
-36 21 -42 -3 -5 -1 -7 5 -3 6 3 20 -6 31 -21 19 -25 41 -52 84 -103 7 -8 31
-37 53 -65 21 -27 45 -54 52 -58 6 -4 12 -12 12 -18 0 -5 10 -20 23 -33 54
-56 77 -87 71 -98 -4 -6 -3 -8 3 -5 6 4 19 -5 29 -19 11 -14 28 -36 39 -48 59
-66 75 -86 72 -86 -2 0 13 -19 34 -41 21 -23 36 -47 32 -53 -3 -6 -3 -8 2 -4
8 8 61 -52 57 -65 -1 -5 2 -6 8 -2 5 3 10 2 10 -2 0 -5 12 -22 28 -40 64 -72
97 -115 95 -123 -2 -5 6 -12 17 -15 11 -4 20 -10 20 -15 0 -5 10 -20 23 -34
12 -13 34 -39 47 -57 14 -18 37 -46 52 -62 15 -17 24 -35 21 -40 -3 -6 -1 -7
4 -4 6 4 18 -3 26 -16 8 -12 25 -32 36 -44 12 -13 20 -23 17 -23 -3 0 5 -10
17 -23 37 -39 77 -87 77 -92 0 -3 10 -16 23 -29 12 -13 37 -41 55 -62 18 -22
46 -55 62 -74 16 -19 28 -41 25 -48 -3 -7 0 -10 5 -7 5 3 17 -4 27 -15 10 -12
26 -31 37 -43 10 -12 30 -38 45 -57 14 -19 34 -42 43 -51 10 -9 18 -19 18 -23
0 -4 12 -19 28 -34 42 -43 92 -109 92 -123 0 -7 3 -9 6 -6 4 3 15 -4 25 -17
22 -28 25 -40 7 -30 -8 4 -10 3 -5 -2 8 -9 12 -10 39 -13 6 0 8 -4 5 -7 -3 -4
5 -15 18 -26 14 -11 25 -24 25 -29 0 -5 16 -26 35 -46 55 -61 65 -73 65 -78 0
-3 11 -18 24 -32 14 -15 22 -31 19 -37 -3 -6 -3 -8 1 -4 12 11 49 -29 41 -43
-5 -7 -4 -10 2 -6 13 8 87 -79 78 -93 -3 -6 1 -7 9 -4 9 3 16 2 16 -3 0 -6 9
-21 21 -34 11 -13 32 -38 47 -55 15 -17 41 -49 57 -70 17 -21 38 -46 48 -56 9
-10 17 -22 17 -26 0 -4 9 -14 20 -22 11 -8 20 -20 20 -28 0 -7 5 -10 10 -7 6
3 10 0 10 -7 0 -7 18 -31 40 -53 21 -22 39 -44 40 -48 0 -4 10 -18 23 -30 12
-12 45 -50 72 -84 28 -35 53 -63 58 -63 4 0 7 -4 7 -10 0 -5 12 -21 26 -35 14
-14 24 -22 23 -18 -2 5 -40 81 -83 168 -44 88 -79 166 -79 173 0 6 -4 12 -9
12 -5 0 -13 12 -19 27 -5 16 -19 45 -29 66 -11 20 -16 37 -12 37 4 0 2 4 -4 8
-13 8 -134 253 -134 271 0 6 -4 11 -10 11 -5 0 -10 4 -10 10 0 16 -49 118 -60
125 -6 4 -8 10 -5 15 3 5 -2 16 -11 24 -8 9 -13 16 -9 16 3 0 -6 20 -20 45
-15 25 -23 50 -19 57 4 7 4 10 -1 6 -9 -8 -45 53 -38 65 2 4 -1 7 -6 7 -6 0
-11 9 -11 19 0 11 -3 21 -7 23 -10 4 -79 149 -75 156 2 2 -1 8 -6 11 -11 7
-185 358 -180 365 2 2 -4 12 -13 22 -17 21 -33 55 -31 67 1 4 -3 7 -8 7 -5 0
-10 3 -9 8 2 15 -14 52 -22 52 -5 0 -8 3 -7 8 1 7 -39 93 -57 122 -5 8 -10 21
-11 28 -2 8 -10 22 -20 33 -9 10 -14 19 -11 19 3 0 -14 39 -38 88 -134 268
-183 371 -177 376 3 3 -1 6 -8 6 -7 0 -11 3 -7 6 3 4 -1 13 -9 21 -8 8 -12 19
-9 24 4 5 2 9 -2 9 -7 0 -26 39 -31 63 -1 4 -8 15 -17 23 -8 9 -13 20 -10 25
4 5 1 9 -4 9 -6 0 -11 9 -11 20 0 11 -5 20 -11 20 -6 0 -9 6 -7 12 4 10 125
13 552 13 301 0 551 -2 556 -5 5 -3 31 -52 58 -110 27 -58 76 -161 109 -230
115 -239 170 -355 193 -405 12 -27 51 -108 86 -178 34 -70 64 -131 65 -135 2
-7 75 -161 165 -349 30 -61 54 -116 54 -122 0 -6 5 -11 10 -11 6 0 9 -3 8 -7
-1 -5 17 -47 40 -96 23 -48 42 -92 42 -97 0 -6 5 -10 10 -10 6 0 10 -5 10 -11
0 -10 28 -71 128 -279 73 -153 176 -369 235 -494 29 -61 75 -155 102 -210 l50
-101 965 -1 c531 0 968 1 971 3 4 1 -337 690 -757 1529 -420 840 -761 1531
-758 1536 3 4 9 8 14 8 9 0 101 41 180 79 61 30 154 83 171 97 8 8 19 14 23
14 4 0 31 18 60 40 29 22 58 40 64 40 5 0 12 3 14 8 2 4 30 29 63 56 100 82
272 261 325 336 13 19 27 37 30 40 46 42 189 299 250 450 12 30 29 71 37 90 8
20 15 42 17 50 2 8 6 22 9 30 11 26 65 226 71 261 3 19 8 45 11 59 37 177 49
322 49 590 0 209 -5 327 -20 425 -6 41 -32 203 -39 240 -35 186 -154 523 -235
665 -8 14 -15 27 -15 30 -1 9 -59 105 -109 180 -207 312 -478 551 -817 722
-75 37 -143 68 -151 68 -8 0 -18 4 -23 8 -19 17 -278 98 -378 118 -54 11 -138
25 -177 30 -19 2 -51 6 -70 9 -19 2 -64 8 -100 11 -65 7 -3918 12 -3925 6z
m3650 -1536 c17 -4 50 -12 75 -17 207 -46 366 -164 450 -334 40 -83 75 -198
65 -215 -3 -6 -2 -10 2 -10 12 0 12 5 12 -385 1 -336 0 -372 -14 -450 -34
-194 -164 -369 -335 -453 -111 -55 -177 -72 -335 -87 -93 -9 -307 -6 -320 5
-14 11 -157 255 -155 265 0 3 -9 15 -20 27 -11 12 -20 25 -20 29 0 5 -12 25
-26 46 -14 21 -33 54 -42 73 -9 19 -22 41 -29 48 -7 8 -11 17 -8 22 3 4 -2 10
-10 14 -8 3 -15 12 -15 19 0 8 -7 20 -15 27 -8 7 -12 16 -9 21 3 5 1 9 -3 9
-5 0 -17 17 -28 38 -11 20 -32 56 -47 78 -16 23 -28 44 -28 47 0 2 -16 31 -35
62 -19 32 -32 63 -28 69 3 6 3 8 -2 4 -11 -10 -47 50 -39 64 4 6 3 8 -3 5 -9
-5 -73 94 -73 113 0 5 -4 10 -8 12 -10 4 -92 146 -92 159 0 5 -4 9 -9 9 -5 0
-15 16 -22 35 -7 19 -17 35 -21 35 -4 0 -8 6 -8 14 0 7 -7 19 -15 26 -8 7 -12
16 -9 21 3 5 0 9 -5 9 -6 0 -11 7 -11 15 0 8 -4 15 -10 15 -5 0 -10 4 -10 9 0
5 -16 35 -35 66 -19 32 -32 63 -28 69 3 6 3 8 -2 4 -7 -7 -46 51 -84 125 -8
15 -18 27 -23 27 -4 0 -8 9 -8 20 0 11 -4 20 -9 20 -5 0 -14 12 -20 28 -6 15
-22 45 -36 67 -13 21 -21 43 -18 49 3 5 1 6 -4 3 -10 -6 -23 13 -23 32 0 9
1504 6 1545 -3z"/>
</g>
</svg>
