<svg width="106" height="80" viewBox="0 0 106 80" fill="none" xmlns="http://www.w3.org/2000/svg">
<path d="M14.4327 79.17V35.0767L4.32982 42.114L0 36.836L52.92 0L105.84 36.946L101.51 42.114L91.4073 35.0767V79.17H14.4327ZM21.6491 72.5725H84.1909V30.0186L52.92 8.24687L21.6491 30.0186V72.5725ZM33.6764 52.78C32.3133 52.78 31.1707 52.3585 30.2486 51.5155C29.3265 50.6725 28.8655 49.6279 28.8655 48.3817C28.8655 47.1355 29.3265 46.0909 30.2486 45.2479C31.1707 44.4048 32.3133 43.9833 33.6764 43.9833C35.0395 43.9833 36.182 44.4048 37.1041 45.2479C38.0262 46.0909 38.4873 47.1355 38.4873 48.3817C38.4873 49.6279 38.0262 50.6725 37.1041 51.5155C36.182 52.3585 35.0395 52.78 33.6764 52.78ZM52.92 52.78C51.5569 52.78 50.4143 52.3585 49.4922 51.5155C48.5701 50.6725 48.1091 49.6279 48.1091 48.3817C48.1091 47.1355 48.5701 46.0909 49.4922 45.2479C50.4143 44.4048 51.5569 43.9833 52.92 43.9833C54.2831 43.9833 55.4257 44.4048 56.3478 45.2479C57.2699 46.0909 57.7309 47.1355 57.7309 48.3817C57.7309 49.6279 57.2699 50.6725 56.3478 51.5155C55.4257 52.3585 54.2831 52.78 52.92 52.78ZM72.1636 52.78C70.8005 52.78 69.658 52.3585 68.7359 51.5155C67.8138 50.6725 67.3527 49.6279 67.3527 48.3817C67.3527 47.1355 67.8138 46.0909 68.7359 45.2479C69.658 44.4048 70.8005 43.9833 72.1636 43.9833C73.5267 43.9833 74.6693 44.4048 75.5914 45.2479C76.5135 46.0909 76.9745 47.1355 76.9745 48.3817C76.9745 49.6279 76.5135 50.6725 75.5914 51.5155C74.6693 52.3585 73.5267 52.78 72.1636 52.78Z" fill="#FE9300"/>
</svg>
