<svg width="100" height="100" viewBox="0 0 100 100" fill="none" xmlns="http://www.w3.org/2000/svg">
<path d="M50 100C43.0833 100 36.5833 98.6875 30.5 96.0625C24.4167 93.4375 19.125 89.875 14.625 85.375C10.125 80.875 6.5625 75.5833 3.9375 69.5C1.3125 63.4167 0 56.9167 0 50C0 43.0833 1.3125 36.5833 3.9375 30.5C6.5625 24.4167 10.125 19.125 14.625 14.625C19.125 10.125 24.4167 6.5625 30.5 3.9375C36.5833 1.3125 43.0833 0 50 0C56.9167 0 63.4167 1.3125 69.5 3.9375C75.5833 6.5625 80.875 10.125 85.375 14.625C89.875 19.125 93.4375 24.4167 96.0625 30.5C98.6875 36.5833 100 43.0833 100 50V56.625C100 61.2917 98.3542 65.2292 95.0625 68.4375C91.7708 71.6458 87.75 73.25 83 73.25C80 73.25 77.1667 72.5208 74.5 71.0625C71.8333 69.6042 69.7917 67.5417 68.375 64.875C66.2083 67.7083 63.5 69.8125 60.25 71.1875C57 72.5625 53.5833 73.25 50 73.25C43.5 73.25 37.9792 71 33.4375 66.5C28.8958 62 26.625 56.5 26.625 50C26.625 43.5 28.8958 37.9583 33.4375 33.375C37.9792 28.7917 43.5 26.5 50 26.5C56.5 26.5 62.0208 28.7917 66.5625 33.375C71.1042 37.9583 73.375 43.5 73.375 50V56.625C73.375 59.2083 74.3125 61.375 76.1875 63.125C78.0625 64.875 80.3333 65.75 83 65.75C85.5833 65.75 87.8125 64.875 89.6875 63.125C91.5625 61.375 92.5 59.2083 92.5 56.625V50C92.5 38.1667 88.375 28.125 80.125 19.875C71.875 11.625 61.8333 7.5 50 7.5C38.1667 7.5 28.125 11.625 19.875 19.875C11.625 28.125 7.5 38.1667 7.5 50C7.5 61.8333 11.625 71.875 19.875 80.125C28.125 88.375 38.1667 92.5 50 92.5H76.75V100H50ZM50 65.75C54.4167 65.75 58.1667 64.2292 61.25 61.1875C64.3333 58.1458 65.875 54.4167 65.875 50C65.875 45.5 64.3333 41.7083 61.25 38.625C58.1667 35.5417 54.4167 34 50 34C45.5833 34 41.8333 35.5417 38.75 38.625C35.6667 41.7083 34.125 45.5 34.125 50C34.125 54.4167 35.6667 58.1458 38.75 61.1875C41.8333 64.2292 45.5833 65.75 50 65.75Z" fill="#FFA223"/>
</svg>
