<svg width="100" height="100" viewBox="0 0 100 100" fill="none" xmlns="http://www.w3.org/2000/svg">
<path d="M49.9997 8.33334C26.9872 8.33334 8.33301 26.9875 8.33301 50C8.33301 73.0125 26.9872 91.6667 49.9997 91.6667C73.0122 91.6667 91.6664 73.0125 91.6664 50C91.6664 26.9875 73.0122 8.33334 49.9997 8.33334Z" fill="url(#paint0_linear_318_469)"/>
<path d="M55.6393 61.0438H66.4226L68.1163 50.0896H55.6393V44.1021C55.6393 39.5521 57.1268 35.5167 61.383 35.5167H68.2226V25.9583C67.0205 25.7958 64.4788 25.4417 59.6768 25.4417C49.6476 25.4417 43.7684 30.7375 43.7684 42.8042V50.0917H33.458V61.0458H43.7663V91.1542C45.808 91.4583 47.8768 91.6667 49.9997 91.6667C51.9184 91.6667 53.7913 91.4917 55.6393 91.2417V61.0438Z" fill="white"/>
<defs>
<linearGradient id="paint0_linear_318_469" x1="20.8184" y1="20.8188" x2="84.6143" y2="84.6146" gradientUnits="userSpaceOnUse">
<stop offset="0.9999" stop-color="#FFA223"/>
<stop offset="1" stop-color="#007AD9"/>
</linearGradient>
</defs>
</svg>
