<svg width="80" height="80" viewBox="0 0 80 80" fill="none" xmlns="http://www.w3.org/2000/svg">
<path d="M37.0109 59.3775H42.9644V35.6265H37.0109V59.3775ZM39.69 28.3033C40.6161 28.3033 41.3934 28.0064 42.0218 27.4126C42.6502 26.8188 42.9644 26.0601 42.9644 25.1365C42.9644 24.2128 42.6502 23.4211 42.0218 22.7614C41.3934 22.1016 40.6161 21.7717 39.69 21.7717C38.7639 21.7717 37.9866 22.1016 37.3582 22.7614C36.7298 23.4211 36.4156 24.2128 36.4156 25.1365C36.4156 26.0601 36.7298 26.8188 37.3582 27.4126C37.9866 28.0064 38.7639 28.3033 39.69 28.3033ZM39.69 79.17C34.2657 79.17 29.1391 78.1309 24.3101 76.0527C19.4812 73.9745 15.2641 71.1375 11.6589 67.5419C8.05376 63.9463 5.20931 59.7404 3.12559 54.9242C1.04186 50.108 0 44.962 0 39.486C0 34.0761 1.04186 28.963 3.12559 24.1469C5.20931 19.3307 8.05376 15.1413 11.6589 11.5786C15.2641 8.01596 19.4812 5.19553 24.3101 3.11732C29.1391 1.03911 34.2988 0 39.7892 0C45.2135 0 50.3401 1.03911 55.1691 3.11732C59.998 5.19553 64.1986 8.01596 67.7707 11.5786C71.3428 15.1413 74.1707 19.3307 76.2544 24.1469C78.3381 28.963 79.38 34.1091 79.38 39.585C79.38 44.9949 78.3381 50.108 76.2544 54.9242C74.1707 59.7404 71.3428 63.9463 67.7707 67.5419C64.1986 71.1375 59.998 73.9745 55.1691 76.0527C50.3401 78.1309 45.1804 79.17 39.69 79.17ZM39.7892 73.2322C49.1164 73.2322 57.0544 69.95 63.6032 63.3855C70.1521 56.821 73.4265 48.8545 73.4265 39.486C73.4265 30.1836 70.1521 22.2666 63.6032 15.735C57.0544 9.20351 49.0833 5.93775 39.69 5.93775C30.3629 5.93775 22.4083 9.20351 15.8264 15.735C9.24446 22.2666 5.9535 30.2165 5.9535 39.585C5.9535 48.8875 9.24446 56.821 15.8264 63.3855C22.4083 69.95 30.3959 73.2322 39.7892 73.2322Z" fill="#FFA223"/>
</svg>
