<svg width="100" height="100" viewBox="0 0 100 100" fill="none" xmlns="http://www.w3.org/2000/svg">
<path d="M0 75V69.4792C0 66.7708 1.45833 64.5833 4.375 62.9167C7.29167 61.25 11.0417 60.4167 15.625 60.4167C16.5278 60.4167 17.3611 60.434 18.125 60.4687C18.8889 60.5035 19.6528 60.5903 20.4167 60.7292C19.8611 61.9097 19.4444 63.1076 19.1667 64.3229C18.8889 65.5382 18.75 66.8403 18.75 68.2292V75H0ZM25 75V68.2292C25 63.7153 27.309 60.0694 31.9271 57.2917C36.5451 54.5139 42.5694 53.125 50 53.125C57.5 53.125 63.5417 54.5139 68.125 57.2917C72.7083 60.0694 75 63.7153 75 68.2292V75H25ZM81.25 75V68.2292C81.25 66.8403 81.1285 65.5382 80.8854 64.3229C80.6424 63.1076 80.243 61.9097 79.6875 60.7292C80.4514 60.5903 81.2153 60.5035 81.9792 60.4687C82.743 60.434 83.5417 60.4167 84.375 60.4167C89.0972 60.4167 92.8819 61.25 95.7292 62.9167C98.5764 64.5833 100 66.7708 100 69.4792V75H81.25ZM50 59.375C44.4444 59.375 39.9306 60.2083 36.4583 61.875C32.9861 63.5417 31.25 65.6597 31.25 68.2292V68.75H68.75V68.125C68.75 65.625 67.0312 63.5417 63.5937 61.875C60.1562 60.2083 55.625 59.375 50 59.375ZM15.625 57.2917C13.6111 57.2917 11.8924 56.5799 10.4688 55.1562C9.04514 53.7326 8.33333 52.0139 8.33333 50C8.33333 47.9861 9.04514 46.2674 10.4688 44.8437C11.8924 43.4201 13.6111 42.7083 15.625 42.7083C17.6389 42.7083 19.3576 43.4201 20.7812 44.8437C22.2049 46.2674 22.9167 47.9861 22.9167 50C22.9167 52.0139 22.2049 53.7326 20.7812 55.1562C19.3576 56.5799 17.6389 57.2917 15.625 57.2917ZM84.375 57.2917C82.3611 57.2917 80.6424 56.5799 79.2188 55.1562C77.7951 53.7326 77.0833 52.0139 77.0833 50C77.0833 47.9861 77.7951 46.2674 79.2188 44.8437C80.6424 43.4201 82.3611 42.7083 84.375 42.7083C86.3889 42.7083 88.1076 43.4201 89.5312 44.8437C90.9549 46.2674 91.6667 47.9861 91.6667 50C91.6667 52.0139 90.9549 53.7326 89.5312 55.1562C88.1076 56.5799 86.3889 57.2917 84.375 57.2917ZM50 50C46.5278 50 43.5764 48.7847 41.1458 46.3542C38.7153 43.9236 37.5 40.9722 37.5 37.5C37.5 33.9583 38.7153 30.9896 41.1458 28.5938C43.5764 26.1979 46.5278 25 50 25C53.5417 25 56.5104 26.1979 58.9062 28.5938C61.3021 30.9896 62.5 33.9583 62.5 37.5C62.5 40.9722 61.3021 43.9236 58.9062 46.3542C56.5104 48.7847 53.5417 50 50 50ZM50 31.25C48.2639 31.25 46.7882 31.8403 45.5729 33.0208C44.3576 34.2014 43.75 35.6944 43.75 37.5C43.75 39.2361 44.3576 40.7118 45.5729 41.9271C46.7882 43.1424 48.2639 43.75 50 43.75C51.8056 43.75 53.2986 43.1424 54.4792 41.9271C55.6597 40.7118 56.25 39.2361 56.25 37.5C56.25 35.6944 55.6597 34.2014 54.4792 33.0208C53.2986 31.8403 51.8056 31.25 50 31.25Z" fill="#FFA223"/>
</svg>
