<svg width="100" height="100" viewBox="0 0 100 100" fill="none" xmlns="http://www.w3.org/2000/svg">
<path d="M45.9375 47.9167C41.5625 47.9167 37.8472 46.3889 34.7917 43.3334C31.7361 40.2778 30.2083 36.5972 30.2083 32.2917C30.2083 27.9167 31.7361 24.2188 34.7917 21.1979C37.8472 18.1771 41.5278 16.6667 45.8333 16.6667C50.2083 16.6667 53.9063 18.1771 56.9271 21.1979C59.9479 24.2188 61.4583 27.882 61.4583 32.1875C61.4583 36.5625 59.9479 40.2778 56.9271 43.3334C53.9063 46.3889 50.2431 47.9167 45.9375 47.9167ZM45.8333 41.6667C48.4722 41.6667 50.6945 40.7465 52.5 38.9063C54.3056 37.066 55.2083 34.8611 55.2083 32.2917C55.2083 29.6528 54.3056 27.4306 52.5 25.625C50.6945 23.8195 48.5069 22.9167 45.9375 22.9167C43.2986 22.9167 41.059 23.8195 39.2188 25.625C37.3785 27.4306 36.4583 29.6181 36.4583 32.1875C36.4583 34.8264 37.3785 37.066 39.2188 38.9063C41.059 40.7465 43.2639 41.6667 45.8333 41.6667ZM93.5417 97.9167L78.9583 83.3334C77.3611 84.5139 75.7118 85.3299 74.0104 85.7813C72.309 86.2327 70.5556 86.4584 68.75 86.4584C63.8195 86.4584 59.6354 84.7396 56.1979 81.3021C52.7604 77.8646 51.0417 73.6806 51.0417 68.75C51.0417 63.8195 52.7604 59.6354 56.1979 56.1979C59.6354 52.7604 63.8195 51.0417 68.75 51.0417C73.6806 51.0417 77.8646 52.7604 81.3021 56.1979C84.7396 59.6354 86.4583 63.8195 86.4583 68.75C86.4583 70.5556 86.2326 72.309 85.7813 74.0104C85.3299 75.7118 84.5139 77.3611 83.3333 78.9584L97.9167 93.5417L93.5417 97.9167ZM68.75 80.2084C72.0139 80.2084 74.7396 79.1146 76.9271 76.9271C79.1146 74.7396 80.2083 72.0139 80.2083 68.75C80.2083 65.4861 79.1146 62.7604 76.9271 60.5729C74.7396 58.3854 72.0139 57.2917 68.75 57.2917C65.4861 57.2917 62.7604 58.3854 60.5729 60.5729C58.3854 62.7604 57.2917 65.4861 57.2917 68.75C57.2917 72.0139 58.3854 74.7396 60.5729 76.9271C62.7604 79.1146 65.4861 80.2084 68.75 80.2084ZM12.5 83.3334V73.5417C12.5 70.9722 13.1076 68.7847 14.3229 66.9792C15.5382 65.1736 17.2917 63.6806 19.5833 62.5C22.8472 60.9028 27.1007 59.3924 32.3438 57.9688C37.5868 56.5452 42.9167 56.007 48.3333 56.3542C47.7778 57.257 47.257 58.2465 46.7708 59.3229C46.2847 60.3993 45.9028 61.4584 45.625 62.5C40.2083 62.4306 35.4861 63.0729 31.4583 64.4271C27.4306 65.7813 24.3056 67.0139 22.0833 68.125C21.1111 68.6806 20.3125 69.4271 19.6875 70.3646C19.0625 71.3021 18.75 72.3611 18.75 73.5417V77.0834H45.625C46.3889 78.2639 47.0833 79.3577 47.7083 80.3646C48.3333 81.3715 49.0278 82.3611 49.7917 83.3334H12.5Z" fill="#FFA223"/>
</svg>
