<svg width="80" height="80" viewBox="0 0 80 80" fill="none" xmlns="http://www.w3.org/2000/svg">
<path d="M63.4375 31.3542L59.2708 26.7708L67.3958 18.6458H42.2917V12.3958H67.3958L59.375 4.375L63.8542 0L79.375 15.5208L63.4375 31.3542ZM70.3125 79.1667C61.8403 79.1667 53.4201 77.0833 45.0521 72.9167C36.684 68.75 29.1667 63.3333 22.5 56.6667C15.8333 50 10.4167 42.4826 6.25 34.1146C2.08333 25.7465 0 17.3264 0 8.85417C0 7.53472 0.451389 6.42361 1.35417 5.52083C2.25694 4.61806 3.36806 4.16667 4.6875 4.16667H19.2708C20.2431 4.16667 21.0938 4.49653 21.8229 5.15625C22.5521 5.81597 23.0208 6.70139 23.2292 7.8125L26.0417 20.9375C26.1806 21.9097 26.1632 22.7951 25.9896 23.5937C25.816 24.3924 25.4514 25.0694 24.8958 25.625L14.4792 36.1458C18.3681 42.6042 22.7257 48.2292 27.5521 53.0208C32.3785 57.8125 37.8472 61.875 43.9583 65.2083L53.8542 55C54.5486 54.2361 55.3472 53.6979 56.25 53.3854C57.1528 53.0729 58.0556 53.0208 58.9583 53.2292L71.3542 55.9375C72.3958 56.1458 73.2639 56.6667 73.9583 57.5C74.6528 58.3333 75 59.3056 75 60.4167V74.4792C75 75.7986 74.5486 76.9097 73.6458 77.8125C72.7431 78.7153 71.632 79.1667 70.3125 79.1667ZM11.3542 30.4167L19.7917 21.875L17.3958 10.4167H6.25C6.25 13.125 6.66667 16.0937 7.5 19.3229C8.33333 22.5521 9.61806 26.25 11.3542 30.4167ZM49.7917 68.2292C52.6389 69.5486 55.7292 70.625 59.0625 71.4583C62.3958 72.2917 65.625 72.7778 68.75 72.9167V61.7708L58.0208 59.5833L49.7917 68.2292Z" fill="#FFA223"/>
</svg>
